<?xml version="1.0" standalone="no"?>
<!DOCTYPE svg PUBLIC "-//W3C//DTD SVG 20010904//EN"
 "http://www.w3.org/TR/2001/REC-SVG-20010904/DTD/svg10.dtd">
<svg version="1.0" xmlns="http://www.w3.org/2000/svg"
 width="850.000000pt" height="850.000000pt" viewBox="0 0 850.000000 850.000000"
 preserveAspectRatio="xMidYMid meet">
<metadata>
Created by potrace 1.11, written by Peter Selinger 2001-2013
</metadata>
<g transform="translate(0.000000,850.000000) scale(0.100000,-0.100000)"
fill="#000000" stroke="none">
<path d="M3415 8483 c-33 -7 -69 -18 -80 -25 -50 -30 -137 -68 -155 -68 -11 0
-60 -20 -110 -44 -49 -25 -90 -43 -90 -41 0 3 -65 -25 -175 -76 -22 -10 -60
-32 -85 -49 -25 -16 -50 -30 -55 -30 -17 0 -243 -118 -366 -191 -64 -38 -119
-69 -122 -69 -3 0 -21 -14 -39 -30 -18 -17 -82 -56 -143 -86 -60 -30 -116 -61
-125 -68 -8 -8 -24 -16 -35 -20 -11 -3 -33 -25 -50 -48 -16 -22 -53 -56 -81
-74 -28 -18 -78 -63 -110 -100 -79 -90 -139 -150 -157 -157 -15 -6 -161 -203
-179 -242 -5 -12 -21 -28 -33 -33 -41 -19 -210 -254 -285 -396 -28 -54 -73
-130 -100 -170 -27 -40 -67 -108 -90 -152 -23 -43 -45 -83 -49 -89 -4 -5 -18
-39 -31 -75 -13 -36 -31 -76 -41 -90 -30 -44 -59 -100 -59 -114 0 -7 -9 -21
-20 -31 -17 -15 -33 -62 -31 -88 1 -4 -17 -44 -40 -90 -23 -45 -50 -104 -60
-132 -10 -27 -30 -81 -44 -120 -33 -86 -44 -121 -50 -160 -3 -16 -10 -55 -16
-85 -5 -30 -14 -75 -18 -100 -4 -25 -17 -65 -28 -90 -21 -47 -37 -102 -48
-165 -1 -11 -6 -38 -10 -60 -5 -22 -9 -47 -10 -55 -1 -8 -5 -22 -8 -30 -13
-36 -25 -105 -20 -113 3 -5 -1 -13 -8 -18 -14 -8 -39 -125 -31 -147 2 -7 10
-12 18 -12 11 0 13 -11 8 -51 -4 -28 -12 -62 -19 -75 -7 -15 -12 -54 -10 -97
1 -40 0 -57 -2 -39 -3 22 -10 32 -22 32 -16 0 -17 -22 -20 -315 -2 -276 0
-317 14 -339 9 -14 14 -30 11 -35 -10 -16 21 -80 66 -139 33 -43 39 -55 28
-62 -12 -7 -6 -21 28 -69 23 -33 42 -65 42 -71 0 -5 4 -10 8 -10 5 0 15 -18
22 -41 8 -22 21 -46 29 -52 9 -7 21 -21 28 -32 6 -11 32 -53 57 -93 25 -40 46
-79 46 -86 0 -7 7 -19 15 -26 8 -7 15 -23 15 -35 0 -12 9 -33 19 -47 11 -13
24 -44 30 -68 7 -25 16 -54 21 -65 4 -11 11 -28 14 -37 8 -28 26 -21 27 10 0
31 3 26 34 -62 16 -43 20 -47 30 -33 18 25 23 21 36 -23 10 -32 17 -40 35 -40
30 0 60 -50 41 -69 -9 -9 -7 -20 8 -49 11 -20 24 -41 30 -45 6 -5 3 -7 -7 -4
-9 3 -22 -1 -29 -10 -11 -13 -10 -18 11 -35 24 -20 40 -43 60 -88 7 -14 18
-36 25 -50 8 -14 21 -40 31 -58 9 -18 41 -58 71 -90 30 -31 67 -75 83 -97 15
-22 40 -49 54 -59 14 -10 26 -23 26 -29 0 -6 7 -19 17 -29 15 -17 15 -18 0
-18 -20 0 -21 -4 -6 -33 11 -19 10 -19 -19 4 -17 13 -36 34 -43 46 -6 12 -18
24 -25 27 -24 9 -16 -25 14 -58 15 -17 35 -43 44 -56 16 -24 18 -24 31 -7 14
16 15 16 31 -7 9 -14 13 -31 11 -38 -3 -7 15 -33 39 -57 36 -36 48 -42 59 -33
12 10 22 3 56 -33 22 -24 41 -52 41 -60 0 -25 81 -107 101 -102 12 3 28 -9 49
-35 25 -30 35 -37 45 -28 10 8 15 7 22 -4 13 -22 76 -87 123 -126 98 -81 149
-125 215 -189 39 -37 81 -72 95 -79 24 -12 90 -72 135 -123 23 -26 5 -17 -42
20 -18 14 -36 26 -40 26 -9 1 -76 61 -156 138 -74 72 -132 117 -151 117 -9 0
-16 4 -16 8 0 17 -100 111 -113 106 -8 -3 -20 2 -27 11 -7 8 -22 15 -33 15
-11 0 -17 3 -14 6 9 9 -11 44 -24 44 -6 0 -8 -7 -5 -16 4 -9 1 -22 -4 -30 -9
-9 0 -23 35 -56 26 -24 61 -50 80 -58 50 -24 121 -86 134 -119 7 -16 26 -35
42 -41 15 -7 39 -22 52 -34 13 -11 40 -30 61 -40 20 -11 54 -38 76 -62 21 -23
57 -52 79 -65 23 -12 41 -25 41 -29 0 -12 129 -101 177 -121 26 -12 62 -31 78
-43 51 -38 55 -39 63 -16 l8 21 26 -20 c14 -12 35 -21 47 -21 14 0 19 -5 16
-18 -6 -33 49 -82 114 -102 33 -10 73 -27 89 -39 17 -12 39 -21 49 -21 11 0
34 -11 52 -24 23 -17 53 -27 97 -31 35 -4 64 -11 64 -16 0 -5 9 -9 20 -9 10 0
29 -4 42 -9 30 -11 126 -39 158 -45 14 -3 59 -14 100 -25 41 -11 87 -21 101
-21 15 0 46 -7 70 -16 24 -9 73 -18 109 -20 36 -3 81 -9 100 -14 19 -5 38 -6
42 -2 4 4 25 6 47 4 29 -3 38 -8 34 -18 -6 -16 -16 -15 157 -20 180 -6 301 -7
380 -2 36 2 85 0 110 -4 69 -12 172 -16 221 -8 24 4 35 8 24 9 -18 1 -18 2 4
17 19 14 51 17 160 18 130 1 140 2 177 27 21 14 71 34 109 44 78 21 115 40
115 61 0 8 8 14 18 15 44 2 149 34 172 53 34 29 101 44 137 32 26 -8 78 15 92
42 10 18 53 36 113 46 20 4 38 12 41 19 2 7 60 41 128 76 191 97 281 145 449
241 85 48 196 107 245 132 50 24 153 86 230 137 132 89 161 110 245 181 19 17
73 61 120 98 96 76 317 292 346 337 10 16 27 39 37 50 9 12 25 36 35 55 84
159 89 168 123 230 5 8 21 40 35 70 15 30 34 70 43 87 11 24 12 36 4 44 -8 8
-18 1 -38 -31 -26 -41 -47 -51 -26 -12 6 12 11 32 11 46 0 13 7 31 15 40 8 8
15 17 15 20 0 4 18 44 40 91 22 47 40 95 40 108 0 12 6 31 14 42 7 11 10 28 7
38 -6 15 -9 16 -26 3 -16 -12 -17 -16 -6 -30 13 -15 11 -17 -16 -16 -5 0 -8
10 -8 23 0 29 -55 39 -55 10 -1 -23 -26 -68 -37 -67 -23 3 -52 -22 -63 -57 -7
-21 -26 -50 -41 -65 -16 -15 -29 -35 -29 -43 0 -12 -5 -10 -22 6 -20 20 -21
25 -7 49 7 15 30 46 51 69 20 23 57 82 81 131 24 49 59 117 77 151 27 49 32
65 22 75 -9 9 -15 9 -24 0 -21 -21 -27 -13 -17 24 18 62 6 73 -24 22 -15 -26
-36 -50 -47 -53 -11 -3 -20 -13 -20 -20 0 -19 -60 -86 -70 -80 -9 6 34 126 71
197 16 30 11 60 -8 56 -10 -2 -19 -9 -19 -16 -3 -23 -4 -23 -21 -6 -16 16 -18
15 -30 -14 -7 -17 -18 -34 -25 -38 -10 -6 -11 -4 0 7 30 32 4 53 -30 22 -12
-11 -18 -12 -18 -3 0 7 -7 10 -16 6 -13 -5 -15 -2 -9 11 4 10 7 26 7 35 0 10
3 20 9 23 17 11 10 44 -11 47 -19 3 -19 5 -5 32 17 33 13 56 -9 56 -13 0 -43
-39 -38 -47 8 -11 -2 -34 -24 -59 -14 -16 -42 -62 -62 -103 -28 -57 -37 -69
-43 -55 -3 11 -2 25 3 31 6 7 8 27 5 45 -3 22 3 50 19 83 32 70 35 99 8 103
-16 2 -24 -5 -34 -30 -8 -18 -26 -51 -40 -73 -15 -22 -37 -62 -49 -89 -20 -46
-45 -75 -65 -76 -5 0 -2 8 7 18 10 10 17 27 17 38 0 10 7 28 15 38 18 23 10
39 -16 31 -24 -8 -24 6 -2 48 21 40 28 103 12 113 -14 8 -48 -33 -49 -59 0
-24 -48 -117 -60 -117 -13 0 -13 12 1 47 6 15 13 41 15 57 2 16 8 32 13 36 6
3 10 34 9 68 -1 51 -5 62 -19 62 -11 0 -20 -15 -29 -47 -17 -63 -22 -71 -31
-47 -4 12 -1 26 10 37 15 17 14 20 -4 33 -27 20 -41 17 -62 -13 -10 -16 -24
-28 -32 -28 -7 0 -28 -28 -46 -63 -42 -83 -49 -88 -67 -60 -9 13 -17 32 -19
43 -6 29 -24 28 -39 -2 -11 -23 -14 -25 -18 -10 -2 10 7 35 20 55 14 20 36 55
50 77 57 90 121 141 275 221 59 31 124 71 143 89 19 18 46 36 60 40 14 4 37
16 52 26 14 11 31 19 36 19 6 0 17 6 24 13 13 13 101 81 160 124 17 13 43 40
59 60 15 21 44 51 63 66 20 15 36 36 36 47 0 10 14 30 30 44 28 23 120 165
120 185 0 5 7 14 15 21 8 7 13 16 10 20 -3 5 -1 11 4 15 10 6 17 18 70 119 17
33 35 64 40 70 5 6 12 22 16 36 4 14 19 52 35 85 49 106 64 158 97 330 3 17
12 38 21 48 8 9 12 20 9 24 -4 3 0 15 10 25 9 10 13 21 10 24 -3 4 0 21 7 38
7 18 11 56 9 89 -3 42 0 64 10 75 8 10 18 39 22 66 3 27 9 54 12 60 11 18 13
447 3 526 -7 51 -7 76 0 78 17 6 11 60 -8 74 -10 7 -27 28 -37 46 -11 17 -22
32 -26 32 -4 0 -5 31 -3 70 3 56 0 77 -16 107 -10 20 -17 40 -14 45 3 4 -10
27 -28 50 -39 50 -58 84 -58 107 0 9 -12 36 -26 61 -14 25 -37 73 -51 108 -14
34 -35 74 -46 89 -12 15 -23 35 -24 45 -5 32 -33 78 -45 75 -7 -1 -17 8 -23
21 -5 12 -13 22 -17 22 -5 0 -8 8 -8 18 0 11 -11 24 -25 30 -14 6 -25 18 -25
26 0 7 -7 16 -15 20 -8 3 -15 13 -15 22 0 20 -93 109 -98 94 -7 -19 -61 28
-55 48 3 13 -14 37 -56 78 -95 91 -147 134 -165 134 -9 0 -16 3 -16 8 0 4 -17
18 -37 32 -21 14 -69 52 -108 86 -77 66 -239 164 -271 164 -12 0 -29 9 -39 20
-22 24 -108 80 -123 80 -6 0 -26 14 -44 30 -18 17 -44 33 -58 36 -38 9 -80 28
-80 36 0 5 -6 8 -13 8 -8 0 -22 9 -32 20 -10 11 -21 17 -26 14 -5 -2 -32 8
-60 23 -29 15 -84 45 -123 66 -39 20 -89 48 -111 61 -22 13 -44 22 -51 19 -6
-2 -17 3 -24 12 -7 8 -17 15 -22 15 -6 0 -20 10 -32 21 -25 24 -114 61 -128
53 -4 -3 -8 -1 -8 4 0 13 -87 58 -130 67 -19 4 -39 11 -45 15 -5 5 -39 16 -75
25 -35 9 -74 22 -85 28 -23 12 -78 25 -150 33 -27 4 -57 13 -66 20 -8 8 -20
14 -25 14 -5 0 -28 13 -52 29 -23 16 -62 33 -85 36 -23 4 -53 12 -67 18 -28
12 -43 15 -85 21 -57 8 -113 26 -138 46 -14 11 -33 20 -42 20 -15 0 -82 19
-140 40 -11 4 -29 8 -40 9 -20 1 -60 8 -60 11 0 5 -46 11 -84 11 -25 0 -50 4
-58 10 -7 6 -18 9 -25 6 -7 -2 -24 0 -38 5 -15 6 -262 11 -595 12 -444 2 -583
0 -630 -11z m1555 -95 c0 -6 -6 -5 -15 2 -8 7 -15 14 -15 16 0 2 7 1 15 -2 8
-4 15 -11 15 -16z m1255 -458 c36 -20 37 -21 10 -15 -36 8 -93 34 -100 46 -8
12 44 -6 90 -31z m644 -337 c2 -2 -3 -3 -12 -3 -9 0 -29 11 -44 25 l-28 26 40
-23 c22 -12 42 -23 44 -25z m346 -193 c3 -6 0 -10 -7 -10 -7 0 -19 9 -26 21
-12 19 -11 19 7 10 11 -6 23 -16 26 -21z m-6568 -1452 c-3 -8 -6 -5 -6 6 -1
11 2 17 5 13 3 -3 4 -12 1 -19z m7556 -1468 c3 -11 2 -22 -2 -24 -4 -3 -8 6
-9 20 -2 29 4 31 11 4z m-663 -805 c0 -2 -10 -9 -22 -15 -22 -11 -22 -10 -4 4
21 17 26 19 26 11z m-7403 -47 c-3 -8 -6 -5 -6 6 -1 11 2 17 5 13 3 -3 4 -12
1 -19z m7353 18 c0 -3 -4 -8 -10 -11 -5 -3 -10 -1 -10 4 0 6 5 11 10 11 6 0
10 -2 10 -4z m98 -788 c-13 -23 -28 -43 -35 -45 -18 -6 -5 30 23 62 13 15 24
33 25 39 0 6 3 6 6 -1 2 -7 -6 -32 -19 -55z m-420 -78 c-12 -35 -25 -47 -23
-20 1 16 22 50 31 50 1 0 -2 -14 -8 -30z m358 -21 c-9 -22 -15 -27 -15 -16 -1
21 18 61 25 54 3 -3 -2 -20 -10 -38z m-6946 -27 c0 -15 -2 -15 -10 -2 -13 20
-13 33 0 25 6 -3 10 -14 10 -23z m6990 -2 c-6 -11 -15 -20 -20 -20 -6 0 -5 9
2 20 7 11 16 20 21 20 4 0 3 -9 -3 -20z m-316 -69 c-18 -41 -44 -62 -44 -36 0
18 54 96 58 84 2 -5 -4 -27 -14 -48z m-6656 4 l13 -30 -21 25 c-11 14 -20 32
-20 40 0 19 13 3 28 -35z m6927 -3 c-16 -15 -26 -23 -22 -18 4 5 3 14 -3 20
-6 8 -2 12 13 13 12 1 23 7 25 13 2 6 7 9 10 5 3 -3 -7 -18 -23 -33z m324 -16
c-11 -20 -23 -36 -25 -36 -6 0 16 53 28 67 20 25 19 6 -3 -31z m-6813 -648 c9
-17 27 -43 40 -57 13 -14 24 -29 24 -34 0 -12 -53 53 -80 97 -13 22 -18 36
-12 32 7 -4 19 -21 28 -38z m6794 7 c0 -8 -4 -15 -9 -15 -5 0 -14 -13 -21 -30
-13 -31 -34 -33 -23 -2 18 49 53 80 53 47z m-820 -815 c0 -5 -5 -10 -11 -10
-5 0 -7 5 -4 10 3 6 8 10 11 10 2 0 4 -4 4 -10z m-423 -256 c-24 -23 -45 -34
-59 -32 -18 2 -14 8 28 35 65 42 77 41 31 -3z m-30 -100 c-3 -3 -12 -4 -19 -1
-8 3 -5 6 6 6 11 1 17 -2 13 -5z m-4153 -233 c-2 -3 -12 3 -22 13 -16 17 -16
18 5 5 12 -7 20 -15 17 -18z m95 -47 c14 -12 -19 -1 -35 12 -18 14 -18 14 6 3
14 -6 27 -13 29 -15z m71 -40 c0 -2 -9 0 -20 6 -11 6 -20 13 -20 16 0 2 9 0
20 -6 11 -6 20 -13 20 -16z m96 -62 c-4 -3 -14 2 -24 12 -16 18 -16 18 6 6 13
-6 21 -14 18 -18z m3194 14 c0 -2 -7 -7 -16 -10 -8 -3 -12 -2 -9 4 6 10 25 14
25 6z m-3035 -74 c-6 -6 -85 19 -85 27 0 5 20 1 44 -7 25 -9 43 -18 41 -20z
m2712 32 c-3 -3 -12 -4 -19 -1 -8 3 -5 6 6 6 11 1 17 -2 13 -5z m-2417 -110
c42 -15 56 -24 40 -24 -14 0 -43 9 -65 20 -22 11 -50 20 -63 20 -14 0 -21 4
-17 11 4 6 14 7 24 3 9 -3 45 -17 81 -30z m-88 -7 c35 -23 162 -51 166 -38 6
17 29 13 44 -8 8 -11 31 -21 58 -24 86 -12 121 -17 128 -19 4 -1 17 1 29 6 13
4 43 1 73 -8 27 -8 50 -12 50 -9 0 4 6 0 13 -9 13 -17 87 -30 87 -16 0 5 15 2
33 -5 23 -10 69 -13 160 -10 80 2 127 0 127 -7 0 -5 22 -9 49 -9 30 1 58 -5
72 -14 33 -23 13 -28 -116 -26 -105 2 -167 2 -245 0 -144 -4 -152 -3 -165 17
-11 15 -31 20 -102 25 -109 8 -127 12 -155 31 -12 9 -32 16 -44 16 -12 0 -37
7 -57 15 -19 8 -37 12 -40 9 -3 -3 -15 0 -27 6 -12 6 -33 14 -47 16 -14 3 -34
11 -45 18 -11 8 -34 11 -56 9 -31 -4 -45 1 -77 28 l-40 32 52 -6 c29 -3 62
-12 75 -20z m1154 -195 c-10 -2 -22 0 -28 6 -6 6 0 7 19 4 21 -5 23 -7 9 -10z
m521 -4 c18 2 33 -2 33 -8 0 -6 -24 -10 -56 -10 -49 0 -55 2 -44 15 7 8 17 12
23 8 6 -4 26 -6 44 -5z m283 -10 c0 -10 -17 -10 -24 0 -3 5 1 9 9 9 8 0 15 -4
15 -9z m54 0 c-3 -4 -9 -8 -15 -8 -5 0 -9 4 -9 8 0 5 7 9 15 9 8 0 12 -4 9 -9z
m-1144 -38 c12 -8 11 -10 -7 -10 -13 0 -23 5 -23 10 0 13 11 13 30 0z"/>
<path d="M920 1962 c0 -11 55 -88 69 -97 25 -15 -4 58 -36 92 -13 15 -33 17
-33 5z"/>
</g>
</svg>
